<svg data-v-fde0c5aa="" xmlns="http://www.w3.org/2000/svg" viewBox="0 0 300 300" class="iconAboveSlogan"><!----><defs data-v-fde0c5aa=""><!----></defs><rect data-v-fde0c5aa="" fill="#FFFFFF" x="0" y="0" width="300px" height="300px" class="logo-background-square"></rect><defs data-v-fde0c5aa=""><!----></defs><g data-v-fde0c5aa="" id="6e7ace62-09ca-4398-b157-223a3e202ca9" fill="#000000" transform="matrix(5.238766762127613,0,0,5.238766762127613,14.132581201436686,145.08015025309507)"><path d="M1.12 13.51L1.12 3.71L4.30 3.71Q5.89 3.71 6.79 4.45Q7.69 5.18 7.69 6.69L7.69 6.69Q7.69 8.65 5.98 9.45L5.98 9.45L8.18 13.51L6.55 13.51L4.56 9.69L4.49 9.69L2.52 9.69L2.52 13.51L1.12 13.51ZM2.52 8.50L4.28 8.50Q5.26 8.50 5.78 8.02Q6.30 7.55 6.30 6.69L6.30 6.69Q6.30 5.84 5.79 5.37Q5.28 4.90 4.28 4.90L4.28 4.90L2.52 4.90L2.52 8.50ZM9.56 13.51L9.56 3.71L12.80 3.71Q14.36 3.71 15.24 4.47Q16.11 5.24 16.11 6.89L16.11 6.89Q16.11 8.51 15.23 9.30Q14.35 10.08 12.80 10.08L12.80 10.08L10.96 10.08L10.96 13.51L9.56 13.51ZM10.96 8.89L12.60 8.89Q13.68 8.89 14.21 8.40Q14.74 7.91 14.74 6.90L14.74 6.90Q14.74 5.88 14.23 5.39Q13.72 4.90 12.60 4.90L12.60 4.90L10.96 4.90L10.96 8.89ZM21.80 13.71Q20.44 13.71 19.35 13.08Q18.26 12.45 17.63 11.28Q17.00 10.12 17.00 8.60L17.00 8.60Q17.00 7.07 17.65 5.92Q18.30 4.77 19.45 4.14Q20.59 3.51 22.06 3.51L22.06 3.51Q22.81 3.51 23.53 3.67Q24.25 3.82 24.82 4.07L24.82 4.07L24.70 5.24Q23.34 4.72 22.11 4.72L22.11 4.72Q20.89 4.72 20.07 5.23Q19.25 5.74 18.85 6.61Q18.45 7.49 18.45 8.61L18.45 8.61Q18.45 10.37 19.40 11.44Q20.34 12.50 22.18 12.50L22.18 12.50Q22.57 12.50 23.02 12.44Q23.46 12.38 23.81 12.24L23.81 12.24L23.81 9.80L22.27 9.80L22.27 8.60L25.14 8.60L25.14 12.96Q24.53 13.30 23.67 13.50Q22.81 13.71 21.80 13.71L21.80 13.71ZM26.66 9.76L26.66 8.55L31.00 8.55L31.00 9.76L26.66 9.76ZM32.91 13.51L32.91 3.71L34.24 3.71L34.24 13.51L32.91 13.51ZM36.48 13.51L36.48 3.71L39.66 3.71Q41.26 3.71 42.15 4.45Q43.05 5.18 43.05 6.69L43.05 6.69Q43.05 8.65 41.34 9.45L41.34 9.45L43.54 13.51L41.92 13.51L39.93 9.69L39.86 9.69L37.88 9.69L37.88 13.51L36.48 13.51ZM37.88 8.50L39.65 8.50Q40.63 8.50 41.15 8.02Q41.66 7.55 41.66 6.69L41.66 6.69Q41.66 5.84 41.15 5.37Q40.64 4.90 39.65 4.90L39.65 4.90L37.88 4.90L37.88 8.50ZM44.93 13.51L44.93 3.71L46.26 3.71L46.26 12.31L50.75 12.31L50.75 13.51L44.93 13.51Z"></path></g><defs data-v-fde0c5aa=""><linearGradient data-v-fde0c5aa="" gradientTransform="rotate(25)" id="091396b2-a286-4146-aa10-1dbba5746a45" x1="0%" y1="0%" x2="100%" y2="0%"><stop data-v-fde0c5aa="" offset="0%" stop-color="#8C48D2" stop-opacity="1"></stop><stop data-v-fde0c5aa="" offset="100%" stop-color="#CF4EB1" stop-opacity="1"></stop></linearGradient></defs><g data-v-fde0c5aa="" id="427637bb-418c-4132-a2da-e24acde53335" stroke="none" fill="url(#091396b2-a286-4146-aa10-1dbba5746a45)" transform="matrix(2.4391517897302237,0,0,2.4391517897302237,110.9735702012382,67.41536426683507)"><path d="M27.377 11.377L16 0 4.623 11.377 16 22.753l11.377-11.376zM16 6.026l5.35 5.35L16 16.727l-5.35-5.35L16 6.026zM27.426 14.969l-5.664 5.664V32h5.664zM10.238 20.633l-5.664-5.664V32h5.664z"></path></g><defs data-v-fde0c5aa=""><!----></defs><g data-v-fde0c5aa="" id="865d849f-37d8-4a64-bbd6-61b8a08e8adc" fill="#000000" transform="matrix(0.5085939285294422,0,0,0.5085939285294422,51.757452844945696,225.05235955948763)"><path d="M10.05 3.78L10.05 13.02L9.38 13.02L9.38 6.13L9.46 4.45L9.45 4.45L6.08 13.02L5.43 13.02L2.06 4.45L2.04 4.45L2.13 6.13L2.13 13.02L1.46 13.02L1.46 3.78L2.51 3.78L5.29 10.78L5.75 12.19L5.77 12.19L6.22 10.79L9.00 3.78L10.05 3.78ZM26.25 13.02L25.09 10.12L20.66 10.12L19.52 13.02L18.77 13.02L22.47 3.78L23.30 3.78L26.99 13.02L26.25 13.02ZM20.93 9.48L24.84 9.48L23.23 5.45L22.89 4.47L22.88 4.47L22.54 5.42L20.93 9.48ZM41.65 13.02L38.26 8.04L36.41 9.91L36.41 13.02L35.71 13.02L35.71 3.78L36.41 3.78L36.41 8.96L41.48 3.78L42.41 3.78L38.75 7.52L42.50 13.02L41.65 13.02ZM51.95 3.78L51.95 13.02L51.25 13.02L51.25 3.78L51.95 3.78ZM68.96 3.78L68.96 13.02L68.10 13.02L63.20 5.77L62.51 4.54L62.50 4.54L62.54 5.70L62.54 13.02L61.87 13.02L61.87 3.78L62.75 3.78L67.63 11.02L68.33 12.26L68.31 11.10L68.31 3.78L68.96 3.78ZM82.43 8.50L86.23 8.50L86.23 13.02L85.67 13.02L85.64 11.41Q85.26 12.25 84.45 12.71Q83.65 13.16 82.46 13.16L82.46 13.16Q81.20 13.16 80.25 12.58Q79.31 12.00 78.80 10.92Q78.29 9.84 78.29 8.40L78.29 8.40Q78.29 6.96 78.81 5.88Q79.34 4.80 80.29 4.22Q81.24 3.64 82.50 3.64L82.50 3.64Q83.92 3.64 84.81 4.20Q85.71 4.76 86.16 5.91L86.16 5.91L85.51 6.24Q85.19 5.28 84.43 4.78Q83.66 4.28 82.50 4.28L82.50 4.28Q81.47 4.28 80.68 4.78Q79.90 5.28 79.46 6.21Q79.03 7.14 79.03 8.40L79.03 8.40Q79.03 10.32 79.95 11.42Q80.86 12.52 82.49 12.52L82.49 12.52Q83.50 12.52 84.20 12.12Q84.90 11.72 85.23 11.07Q85.57 10.42 85.57 9.67L85.57 9.67L85.57 9.16L82.43 9.16L82.43 8.50ZM113.01 3.78L113.01 4.42L109.63 4.42L109.63 13.02L108.93 13.02L108.93 4.42L105.56 4.42L105.56 3.78L113.01 3.78ZM128.18 3.78L128.88 3.78L128.88 13.02L128.18 13.02L128.18 8.65L122.47 8.65L122.47 13.02L121.77 13.02L121.77 3.78L122.47 3.78L122.47 7.99L128.18 7.99L128.18 3.78ZM139.50 12.38L145.33 12.38L145.33 13.02L138.80 13.02L138.80 3.78L145.11 3.78L145.11 4.42L139.50 4.42L139.50 7.99L143.93 7.99L143.93 8.65L139.50 8.65L139.50 12.38ZM172.05 3.78L168.49 13.02L167.66 13.02L164.09 3.78L164.85 3.78L167.58 10.93L168.07 12.36L168.56 10.93L171.30 3.78L172.05 3.78ZM181.52 3.78L181.52 13.02L180.82 13.02L180.82 3.78L181.52 3.78ZM198.38 13.02L197.55 13.02L194.91 9.02L194.87 9.02L192.14 9.02L192.14 13.02L191.44 13.02L191.44 3.78L194.87 3.78Q196.25 3.78 197.07 4.48Q197.89 5.18 197.89 6.40L197.89 6.40Q197.89 7.41 197.30 8.07Q196.71 8.74 195.69 8.93L195.69 8.93L198.38 13.02ZM192.14 4.42L192.14 8.36L194.85 8.36Q195.97 8.36 196.57 7.85Q197.16 7.35 197.16 6.40L197.16 6.40Q197.16 5.45 196.57 4.93Q195.97 4.42 194.85 4.42L194.85 4.42L192.14 4.42ZM213.39 3.78L213.39 4.42L210.01 4.42L210.01 13.02L209.31 13.02L209.31 4.42L205.94 4.42L205.94 3.78L213.39 3.78ZM229.17 3.78L229.17 9.65Q229.17 11.35 228.24 12.26Q227.32 13.16 225.61 13.16L225.61 13.16Q223.90 13.16 222.97 12.26Q222.04 11.35 222.04 9.65L222.04 9.65L222.04 3.78L222.74 3.78L222.74 9.51Q222.74 10.99 223.47 11.75Q224.20 12.52 225.61 12.52L225.61 12.52Q227.01 12.52 227.74 11.75Q228.47 10.99 228.47 9.51L228.47 9.51L228.47 3.78L229.17 3.78ZM245 13.02L243.84 10.12L239.41 10.12L238.27 13.02L237.52 13.02L241.22 3.78L242.05 3.78L245.74 13.02L245 13.02ZM239.68 9.48L243.59 9.48L241.98 5.45L241.64 4.47L241.63 4.47L241.29 5.42L239.68 9.48ZM255.16 12.38L260.71 12.38L260.71 13.02L254.46 13.02L254.46 3.78L255.16 3.78L255.16 12.38ZM269.57 11.87Q269.93 11.87 270.14 12.15Q270.34 12.43 270.34 12.89L270.34 12.89Q270.34 13.48 270.03 14Q269.72 14.52 269.14 14.81L269.14 14.81L268.74 14.46Q269.23 14.28 269.55 13.85Q269.86 13.41 269.84 13.01L269.84 13.01L269.79 12.99Q269.70 13.13 269.47 13.13L269.47 13.13Q269.26 13.13 269.09 12.96Q268.93 12.80 268.93 12.52L268.93 12.52Q268.93 12.25 269.12 12.06Q269.30 11.87 269.57 11.87L269.57 11.87ZM297.88 13.02L297.05 13.02L294.41 9.02L294.36 9.02L291.63 9.02L291.63 13.02L290.93 13.02L290.93 3.78L294.36 3.78Q295.75 3.78 296.57 4.48Q297.39 5.18 297.39 6.40L297.39 6.40Q297.39 7.41 296.80 8.07Q296.21 8.74 295.19 8.93L295.19 8.93L297.88 13.02ZM291.63 4.42L291.63 8.36L294.35 8.36Q295.47 8.36 296.06 7.85Q296.66 7.35 296.66 6.40L296.66 6.40Q296.66 5.45 296.06 4.93Q295.47 4.42 294.35 4.42L294.35 4.42L291.63 4.42ZM307.59 12.38L313.43 12.38L313.43 13.02L306.89 13.02L306.89 3.78L313.21 3.78L313.21 4.42L307.59 4.42L307.59 7.99L312.03 7.99L312.03 8.65L307.59 8.65L307.59 12.38ZM328.75 13.02L327.59 10.12L323.16 10.12L322.01 13.02L321.27 13.02L324.97 3.78L325.79 3.78L329.49 13.02L328.75 13.02ZM323.43 9.48L327.33 9.48L325.72 5.45L325.39 4.47L325.37 4.47L325.04 5.42L323.43 9.48ZM338.91 12.38L344.46 12.38L344.46 13.02L338.21 13.02L338.21 3.78L338.91 3.78L338.91 12.38ZM353.92 3.78L353.92 13.02L353.22 13.02L353.22 3.78L353.92 3.78ZM370.13 3.78L370.13 4.42L366.76 4.42L366.76 13.02L366.06 13.02L366.06 4.42L362.68 4.42L362.68 3.78L370.13 3.78ZM384.87 3.78L381.60 9.42L381.60 13.02L380.90 13.02L380.90 9.42L377.62 3.78L378.45 3.78L381.25 8.69L384.05 3.78L384.87 3.78Z"></path></g></svg>