<svg data-v-423bf9ae="" xmlns="http://www.w3.org/2000/svg" viewBox="0 0 291.9411882127722 60" class="font"><!----><!----><!----><g data-v-423bf9ae="" id="b0334a2b-a40f-4839-9679-b3f9bec0881d" fill="white" transform="matrix(5.88235305117351,0,0,5.88235305117351,-6.588237887435412,-20.647059868776267)"><path d="M1.12 13.51L1.12 3.71L4.30 3.71Q5.89 3.71 6.79 4.45Q7.69 5.18 7.69 6.69L7.69 6.69Q7.69 8.65 5.98 9.45L5.98 9.45L8.18 13.51L6.55 13.51L4.56 9.69L4.49 9.69L2.52 9.69L2.52 13.51L1.12 13.51ZM2.52 8.50L4.28 8.50Q5.26 8.50 5.78 8.02Q6.30 7.55 6.30 6.69L6.30 6.69Q6.30 5.84 5.79 5.37Q5.28 4.90 4.28 4.90L4.28 4.90L2.52 4.90L2.52 8.50ZM9.56 13.51L9.56 3.71L12.80 3.71Q14.36 3.71 15.24 4.47Q16.11 5.24 16.11 6.89L16.11 6.89Q16.11 8.51 15.23 9.30Q14.35 10.08 12.80 10.08L12.80 10.08L10.96 10.08L10.96 13.51L9.56 13.51ZM10.96 8.89L12.60 8.89Q13.68 8.89 14.21 8.40Q14.74 7.91 14.74 6.90L14.74 6.90Q14.74 5.88 14.23 5.39Q13.72 4.90 12.60 4.90L12.60 4.90L10.96 4.90L10.96 8.89ZM21.80 13.71Q20.44 13.71 19.35 13.08Q18.26 12.45 17.63 11.28Q17.00 10.12 17.00 8.60L17.00 8.60Q17.00 7.07 17.65 5.92Q18.30 4.77 19.45 4.14Q20.59 3.51 22.06 3.51L22.06 3.51Q22.81 3.51 23.53 3.67Q24.25 3.82 24.82 4.07L24.82 4.07L24.70 5.24Q23.34 4.72 22.11 4.72L22.11 4.72Q20.89 4.72 20.07 5.23Q19.25 5.74 18.85 6.61Q18.45 7.49 18.45 8.61L18.45 8.61Q18.45 10.37 19.40 11.44Q20.34 12.50 22.18 12.50L22.18 12.50Q22.57 12.50 23.02 12.44Q23.46 12.38 23.81 12.24L23.81 12.24L23.81 9.80L22.27 9.80L22.27 8.60L25.14 8.60L25.14 12.96Q24.53 13.30 23.67 13.50Q22.81 13.71 21.80 13.71L21.80 13.71ZM26.66 9.76L26.66 8.55L31.00 8.55L31.00 9.76L26.66 9.76ZM32.91 13.51L32.91 3.71L34.24 3.71L34.24 13.51L32.91 13.51ZM36.48 13.51L36.48 3.71L39.66 3.71Q41.26 3.71 42.15 4.45Q43.05 5.18 43.05 6.69L43.05 6.69Q43.05 8.65 41.34 9.45L41.34 9.45L43.54 13.51L41.92 13.51L39.93 9.69L39.86 9.69L37.88 9.69L37.88 13.51L36.48 13.51ZM37.88 8.50L39.65 8.50Q40.63 8.50 41.15 8.02Q41.66 7.55 41.66 6.69L41.66 6.69Q41.66 5.84 41.15 5.37Q40.64 4.90 39.65 4.90L39.65 4.90L37.88 4.90L37.88 8.50ZM44.93 13.51L44.93 3.71L46.26 3.71L46.26 12.31L50.75 12.31L50.75 13.51L44.93 13.51Z"></path></g><!----><!----></svg>